<svg viewBox="0 0 99 36" xmlns="http://www.w3.org/2000/svg" xmlns:xlink="http://www.w3.org/1999/xlink"><linearGradient id="a" x1="50%" x2="50%" y1="0%" y2="100%"><stop offset="0" stop-color="#41f5cd"/><stop offset="1" stop-color="#3cd0af"/></linearGradient><g fill="none" fill-rule="evenodd"><rect fill="url(#a)" height="36" rx="2.4" width="36"/><g transform="translate(10.8 9.225)"><path d="m2.90279732.92247446c-1.76176348 1.68162538-2.90279732 4.37134715-2.90279732 7.40252554 0 5.0948268 3.2235498 9.225 7.2 9.225s7.2-4.1301732 7.2-9.225c0-3.04504186-1.151495-5.74549656-2.9270091-7.42553557" stroke="#fff" stroke-width="1.2"/><path d="m7.25816137.84343283-5.23316137 13.78156717m5.35683071-13.80283567 4.99316929 13.80283567" stroke="#fff" stroke-linecap="round" stroke-linejoin="round" stroke-width="1.2"/><g fill="#fff"><circle cx="2.925" cy=".9" r="1"/><circle cx="11.475" cy=".9" r="1"/></g></g><path d="m15.3 18.45h5.625" stroke="#fff" stroke-linecap="square" stroke-width="1.2"/><path d="m42.3 25 1.42-3.48h6.72l1.44 3.48h2.24l-6.08-14.16h-1.8l-6.14 14.16zm7.42-5.22h-5.3l2.66-6.64zm7.923333 5.38c.2933333 0 .5766667-.0233333.85-.07s.5233333-.11.75-.19l-.06-1.54c-.16.08-.34.14-.54.18s-.3866667.06-.56.06c-.4666667 0-.8066667-.1233333-1.02-.37s-.32-.6566667-.32-1.23v-4.94h2.52v-1.54h-2.52v-2.72h-1.86v2.72h-1.82v1.54h1.82v5.14c0 .9866667.2366667 1.7266667.71 2.22s1.1566667.74 2.05.74zm4.263333-.16v-5.02c0-.9466667.24-1.7033333.72-2.27s1.0933333-.85 1.84-.85c.44 0 .7966667.08 1.07.24s.49.3733333.65.64.27.5733333.33.92.09.7133333.09 1.1v5.24h1.88v-5.88c0-.5333333-.07-1.0333333-.21-1.5s-.3566667-.8733333-.65-1.22-.66-.6233333-1.1-.83-.9666667-.31-1.58-.31c-.68 0-1.2933333.1666667-1.84.5s-.9333333.7333333-1.16 1.2h-.04v-7.08h-1.88v15.12zm12.923333.26c.84 0 1.6033333-.1566667 2.29-.47s1.2833333-.8033333 1.79-1.47l-1.32-1.06c-.2666667.4-.6333333.74-1.1 1.02s-1.02.42-1.66.42c-.4133333 0-.8033333-.0733333-1.17-.22s-.69-.35-.97-.61-.5033333-.5666667-.67-.92-.2566667-.73-.27-1.13h7.52c.0133333-.1066667.02-.2133333.02-.32v-.32c0-.76-.1066667-1.4433333-.32-2.05s-.5166667-1.1233333-.91-1.55-.8733333-.7533333-1.44-.98-1.1966667-.34-1.89-.34-1.34.1233333-1.94.37-1.12.59-1.56 1.03-.7833333.97-1.03 1.59-.37 1.2966667-.37 2.03c0 .7466667.1266667 1.4266667.38 2.04s.6 1.1366667 1.04 1.57.9666667.77 1.58 1.01 1.28.36 2 .36zm2.56-5.84h-5.64c.0266667-.3733333.1233333-.7233333.29-1.05s.38-.61.64-.85.5666667-.43.92-.57.73-.21 1.13-.21c.44 0 .8233333.07 1.15.21s.6.33.82.57.3866667.5233333.5.85.1766667.6766667.19 1.05zm5.183333 5.58v-5.04c0-.9466667.2366667-1.7033333.71-2.27s1.0833333-.85 1.83-.85c.44 0 .8.08 1.08.24s.5.3733333.66.64.27.5733333.33.92.09.7133333.09 1.1v5.26h1.88v-5.88c0-.5333333-.07-1.0333333-.21-1.5s-.3566667-.8733333-.65-1.22-.66-.6233333-1.1-.83-.9666667-.31-1.58-.31c-.3466667 0-.68.0466667-1 .14s-.6133333.2233333-.88.39-.5033333.36-.71.58-.37.4566667-.49.71h-.06c0-.2-.0066667-.45-.02-.75s-.0333333-.57-.06-.81h-1.78c.0266667.3066667.0466667.66.06 1.06s.02.7266667.02.98v7.44zm11.283333.24c.72 0 1.3433333-.14 1.87-.42s.9633333-.6733333 1.31-1.18h.06c0 .4533333.0533333.9066667.16 1.36h1.7c-.0533333-.2266667-.09-.5166667-.11-.87s-.03-.69-.03-1.01v-4.14c0-.52-.08-1.0066667-.24-1.46s-.4-.8466667-.72-1.18-.73-.5966667-1.23-.79-1.09-.29-1.77-.29c-.7733333 0-1.4966667.1266667-2.17.38s-1.2433333.6-1.71 1.04l1 1.2c.32-.32.7166667-.5833333 1.19-.79s.9766667-.31 1.51-.31c.7066667 0 1.2733333.17 1.7.51s.64.8633333.64 1.57v.26c-.8 0-1.5933333.0333333-2.38.1s-1.4933333.21-2.12.43-1.1333333.54-1.52.96-.58.99-.58 1.71c0 .5466667.11 1.0066667.33 1.38s.4966667.6733333.83.9.7033333.39 1.11.49.7966667.15 1.17.15zm.42-1.48c-.24 0-.4733333-.0233333-.7-.07s-.4333333-.13-.62-.25-.3366667-.2733333-.45-.46-.17-.42-.17-.7c0-.4.1333333-.72.4-.96s.6033333-.42 1.01-.54.86-.2 1.36-.24.9833333-.06 1.45-.06h.46v.5c0 .8-.2366667 1.4633333-.71 1.99s-1.15.79-2.03.79z" fill="#000" fill-rule="nonzero"/></g></svg>
